<svg width="24" height="24" viewBox="0 0 24 24" fill="none" xmlns="http://www.w3.org/2000/svg">
  <path fill-rule="evenodd" clip-rule="evenodd" d="M4 6.2C4 5.88174 4.12643 5.57652 4.35147 5.35147C4.57652 5.12643 4.88174 5 5.2 5H19.6C19.9183 5 20.2235 5.12643 20.4485 5.35147C20.6736 5.57652 20.8 5.88174 20.8 6.2C20.8 6.51826 20.6736 6.82348 20.4485 7.04853C20.2235 7.27357 19.9183 7.4 19.6 7.4H5.2C4.88174 7.4 4.57652 7.27357 4.35147 7.04853C4.12643 6.82348 4 6.51826 4 6.2Z" fill="#2F2F37" />
  <path fill-rule="evenodd" clip-rule="evenodd" d="M3.59961 12.0008C3.59961 11.6825 3.72604 11.3773 3.95108 11.1523C4.17612 10.9272 4.48135 10.8008 4.79961 10.8008H19.1996C19.5179 10.8008 19.8231 10.9272 20.0481 11.1523C20.2732 11.3773 20.3996 11.6825 20.3996 12.0008C20.3996 12.319 20.2732 12.6243 20.0481 12.8493C19.8231 13.0744 19.5179 13.2008 19.1996 13.2008H4.79961C4.48135 13.2008 4.17612 13.0744 3.95108 12.8493C3.72604 12.6243 3.59961 12.319 3.59961 12.0008Z" fill="#2F2F37" />
  <path fill-rule="evenodd" clip-rule="evenodd" d="M3.59961 18.0008C3.59961 17.6825 3.72604 17.3773 3.95108 17.1523C4.17612 16.9272 4.48135 16.8008 4.79961 16.8008H19.1996C19.5179 16.8008 19.8231 16.9272 20.0481 17.1523C20.2732 17.3773 20.3996 17.6825 20.3996 18.0008C20.3996 18.319 20.2732 18.6243 20.0481 18.8493C19.8231 19.0744 19.5179 19.2008 19.1996 19.2008H4.79961C4.48135 19.2008 4.17612 19.0744 3.95108 18.8493C3.72604 18.6243 3.59961 18.319 3.59961 18.0008Z" fill="#2F2F37" />
</svg>